<?xml version="1.0" encoding="UTF-8" standalone="no"?>
<svg
   version="1.1"
   viewBox="0.0 0.0 960.0 540.0"
   fill="none"
   stroke="none"
   stroke-linecap="square"
   stroke-miterlimit="10"
   id="svg11"
   sodipodi:docname="app1.svg"
   inkscape:version="1.4.1-rc (06eac75fbf, 2025-03-29)"
   xmlns:inkscape="http://www.inkscape.org/namespaces/inkscape"
   xmlns:sodipodi="http://sodipodi.sourceforge.net/DTD/sodipodi-0.dtd"
   xmlns="http://www.w3.org/2000/svg"
   xmlns:svg="http://www.w3.org/2000/svg">
  <defs
     id="defs11" />
  <sodipodi:namedview
     id="namedview11"
     pagecolor="#ffffff"
     bordercolor="#000000"
     borderopacity="0.25"
     inkscape:showpageshadow="2"
     inkscape:pageopacity="0.0"
     inkscape:pagecheckerboard="0"
     inkscape:deskcolor="#d1d1d1"
     inkscape:zoom="1.5013785"
     inkscape:cx="395.30339"
     inkscape:cy="293.73007"
     inkscape:window-width="2560"
     inkscape:window-height="1360"
     inkscape:window-x="0"
     inkscape:window-y="0"
     inkscape:window-maximized="1"
     inkscape:current-layer="svg11" />
  <path
     fill="#d9d2e9"
     d="m 83.43569,245.62466 h 163.3386 v -24.37795 l 48.7559,48.75591 -48.7559,48.75592 V 294.38058 H 83.43569 Z"
     fill-rule="evenodd"
     id="path3" />
  <path
     stroke="#595959"
     stroke-width="1"
     stroke-linejoin="round"
     stroke-linecap="butt"
     d="m 83.43569,245.62466 h 163.3386 v -24.37795 l 48.7559,48.75591 -48.7559,48.75592 V 294.38058 H 83.43569 Z"
     fill-rule="evenodd"
     id="path4" />
  <path
     fill="#000000"
     d="m 144.862,278.26263 v -16.21875 h 3.28125 v 16.21875 z m 17.06026,0 h -3.10938 v -6 q 0,-1.90625 -0.20312,-2.45313 -0.1875,-0.5625 -0.64063,-0.875 -0.45312,-0.3125 -1.07812,-0.3125 -0.8125,0 -1.45313,0.45313 -0.64062,0.4375 -0.875,1.17187 -0.23437,0.71875 -0.23437,2.6875 v 5.32813 h -3.10938 v -11.75 h 2.875 v 1.73437 q 1.54688,-2 3.875,-2 1.03125,0 1.875,0.375 0.85938,0.375 1.29688,0.95313 0.4375,0.5625 0.60937,1.29687 0.17188,0.73438 0.17188,2.09375 z m 3.05809,-11.75 h 2.90625 v 1.73437 q 0.5625,-0.89062 1.51562,-1.4375 0.96875,-0.5625 2.14063,-0.5625 2.04687,0 3.46875,1.60938 1.4375,1.59375 1.4375,4.46875 0,2.9375 -1.4375,4.57812 -1.4375,1.625 -3.48438,1.625 -0.96875,0 -1.76562,-0.39062 -0.79688,-0.39063 -1.67188,-1.32813 v 5.92188 h -3.10937 z m 3.07812,5.67187 q 0,1.98438 0.78125,2.9375 0.79688,0.9375 1.92188,0.9375 1.07812,0 1.79687,-0.85937 0.71875,-0.875 0.71875,-2.85938 0,-1.84375 -0.73437,-2.73437 -0.73438,-0.90625 -1.84375,-0.90625 -1.125,0 -1.89063,0.89062 -0.75,0.875 -0.75,2.59375 z m 18.58934,6.07813 V 276.497 q -0.64062,0.95313 -1.6875,1.5 -1.04687,0.53125 -2.20312,0.53125 -1.1875,0 -2.125,-0.51562 -0.9375,-0.53125 -1.35938,-1.46875 -0.42187,-0.9375 -0.42187,-2.59375 v -7.4375 h 3.10937 v 5.40625 q 0,2.46875 0.17188,3.03125 0.17187,0.5625 0.625,0.89062 0.45312,0.3125 1.14062,0.3125 0.79688,0 1.42188,-0.42187 0.64062,-0.4375 0.875,-1.07813 0.23437,-0.65625 0.23437,-3.1875 v -4.95312 h 3.10938 v 11.75 z m 11.49559,-11.75 v 2.48437 h -2.125 v 4.73438 q 0,1.4375 0.0625,1.67187 0.0625,0.23438 0.26563,0.39063 0.21875,0.15625 0.53125,0.15625 0.4375,0 1.25,-0.29688 l 0.26562,2.40625 q -1.07812,0.46875 -2.45312,0.46875 -0.84375,0 -1.51563,-0.28125 -0.67187,-0.28125 -1,-0.71875 -0.3125,-0.45312 -0.42187,-1.21875 -0.10938,-0.54687 -0.10938,-2.20312 V 268.997 h -1.42187 v -2.48437 h 1.42187 v -2.32813 l 3.125,-1.8125 v 4.14063 z m 1.06034,8.39062 3.125,-0.46875 q 0.1875,0.90625 0.79687,1.375 0.60938,0.46875 1.70313,0.46875 1.21875,0 1.8125,-0.4375 0.42187,-0.3125 0.42187,-0.82812 0,-0.35938 -0.21875,-0.59375 -0.23437,-0.21875 -1.04687,-0.40625 -3.76563,-0.82813 -4.76563,-1.51563 -1.39062,-0.95312 -1.39062,-2.64062 0,-1.53125 1.20312,-2.5625 1.20313,-1.04688 3.73438,-1.04688 2.40625,0 3.57812,0.79688 1.1875,0.78125 1.625,2.3125 l -2.9375,0.54687 q -0.1875,-0.6875 -0.71875,-1.04687 -0.51562,-0.375 -1.48437,-0.375 -1.23438,0 -1.76563,0.34375 -0.35937,0.25 -0.35937,0.625 0,0.34375 0.3125,0.57812 0.42187,0.29688 2.90625,0.875 2.48437,0.5625 3.46875,1.375 0.96875,0.82813 0.96875,2.3125 0,1.60938 -1.34375,2.78125 -1.34375,1.15625 -4,1.15625 -2.39063,0 -3.79688,-0.96875 -1.39062,-0.98437 -1.82812,-2.65625 z"
     fill-rule="nonzero"
     id="path5" />
  <path
     fill="#d9d2e9"
     d="m 657.3412,245.62466 h 163.33862 v -24.37795 l 48.75586,48.75591 -48.75586,48.75592 V 294.38058 H 657.3412 Z"
     fill-rule="evenodd"
     id="path6" />
  <path
     stroke="#595959"
     stroke-width="1"
     stroke-linejoin="round"
     stroke-linecap="butt"
     d="m 657.3412,245.62466 h 163.33862 v -24.37795 l 48.75586,48.75591 -48.75586,48.75592 V 294.38058 H 657.3412 Z"
     fill-rule="evenodd"
     id="path7" />
  <path
     fill="#000000"
     d="m 708.7686,270.247 q 0,-2.46875 0.73437,-4.15625 0.5625,-1.23437 1.51563,-2.21875 0.95312,-0.98437 2.09375,-1.46875 1.51562,-0.64062 3.5,-0.64062 3.57812,0 5.73437,2.23437 2.15625,2.21875 2.15625,6.17188 0,3.9375 -2.14062,6.15625 -2.125,2.21875 -5.70313,2.21875 -3.625,0 -5.76562,-2.20313 -2.125,-2.21875 -2.125,-6.09375 z m 3.375,-0.10937 q 0,2.76562 1.26562,4.1875 1.28125,1.42187 3.23438,1.42187 1.95312,0 3.20312,-1.40625 1.26563,-1.42187 1.26563,-4.25 0,-2.78125 -1.21875,-4.15625 -1.21875,-1.375 -3.25,-1.375 -2.01563,0 -3.26563,1.39063 -1.23437,1.39062 -1.23437,4.1875 z m 22.62274,8.125 V 276.497 q -0.64062,0.95313 -1.6875,1.5 -1.04687,0.53125 -2.20312,0.53125 -1.1875,0 -2.125,-0.51562 -0.9375,-0.53125 -1.35938,-1.46875 -0.42187,-0.9375 -0.42187,-2.59375 v -7.4375 h 3.10937 v 5.40625 q 0,2.46875 0.17188,3.03125 0.17187,0.5625 0.625,0.89062 0.45312,0.3125 1.14062,0.3125 0.79688,0 1.42188,-0.42187 0.64062,-0.4375 0.875,-1.07813 0.23437,-0.65625 0.23437,-3.1875 v -4.95312 h 3.10938 v 11.75 z m 11.49561,-11.75 v 2.48437 h -2.125 v 4.73438 q 0,1.4375 0.0625,1.67187 0.0625,0.23438 0.26562,0.39063 0.21875,0.15625 0.53125,0.15625 0.4375,0 1.25,-0.29688 l 0.26563,2.40625 q -1.07813,0.46875 -2.45313,0.46875 -0.84375,0 -1.51562,-0.28125 -0.67188,-0.28125 -1,-0.71875 -0.3125,-0.45312 -0.42188,-1.21875 -0.10937,-0.54687 -0.10937,-2.20312 V 268.997 h -1.42188 v -2.48437 h 1.42188 v -2.32813 l 3.125,-1.8125 v 4.14063 z m 2.0603,0 h 2.90625 v 1.73437 q 0.5625,-0.89062 1.51562,-1.4375 0.96875,-0.5625 2.14063,-0.5625 2.04687,0 3.46875,1.60938 1.4375,1.59375 1.4375,4.46875 0,2.9375 -1.4375,4.57812 -1.4375,1.625 -3.48438,1.625 -0.96875,0 -1.76562,-0.39062 -0.79688,-0.39063 -1.67188,-1.32813 v 5.92188 h -3.10937 z m 3.07812,5.67187 q 0,1.98438 0.78125,2.9375 0.79688,0.9375 1.92188,0.9375 1.07812,0 1.79687,-0.85937 0.71875,-0.875 0.71875,-2.85938 0,-1.84375 -0.73437,-2.73437 -0.73438,-0.90625 -1.84375,-0.90625 -1.125,0 -1.89063,0.89062 -0.75,0.875 -0.75,2.59375 z m 18.58936,6.07813 V 276.497 q -0.64063,0.95313 -1.6875,1.5 -1.04688,0.53125 -2.20313,0.53125 -1.1875,0 -2.125,-0.51562 -0.9375,-0.53125 -1.35937,-1.46875 -0.42188,-0.9375 -0.42188,-2.59375 v -7.4375 h 3.10938 v 5.40625 q 0,2.46875 0.17187,3.03125 0.17188,0.5625 0.625,0.89062 0.45313,0.3125 1.14063,0.3125 0.79687,0 1.42187,-0.42187 0.64063,-0.4375 0.875,-1.07813 0.23438,-0.65625 0.23438,-3.1875 v -4.95312 h 3.10937 v 11.75 z m 11.4956,-11.75 v 2.48437 h -2.125 v 4.73438 q 0,1.4375 0.0625,1.67187 0.0625,0.23438 0.26563,0.39063 0.21875,0.15625 0.53125,0.15625 0.4375,0 1.25,-0.29688 l 0.26562,2.40625 q -1.07812,0.46875 -2.45312,0.46875 -0.84375,0 -1.51563,-0.28125 -0.67187,-0.28125 -1,-0.71875 -0.3125,-0.45312 -0.42187,-1.21875 -0.10938,-0.54687 -0.10938,-2.20312 V 268.997 h -1.42187 v -2.48437 h 1.42187 v -2.32813 l 3.125,-1.8125 v 4.14063 z m 1.06031,8.39062 3.125,-0.46875 q 0.1875,0.90625 0.79687,1.375 0.60938,0.46875 1.70313,0.46875 1.21875,0 1.8125,-0.4375 0.42187,-0.3125 0.42187,-0.82812 0,-0.35938 -0.21875,-0.59375 -0.23437,-0.21875 -1.04687,-0.40625 -3.76563,-0.82813 -4.76563,-1.51563 -1.39062,-0.95312 -1.39062,-2.64062 0,-1.53125 1.20312,-2.5625 1.20313,-1.04688 3.73438,-1.04688 2.40625,0 3.57812,0.79688 1.1875,0.78125 1.625,2.3125 l -2.9375,0.54687 q -0.1875,-0.6875 -0.71875,-1.04687 -0.51562,-0.375 -1.48437,-0.375 -1.23438,0 -1.76563,0.34375 -0.35937,0.25 -0.35937,0.625 0,0.34375 0.3125,0.57812 0.42187,0.29688 2.90625,0.875 2.48437,0.5625 3.46875,1.375 0.96875,0.82813 0.96875,2.3125 0,1.60938 -1.34375,2.78125 -1.34375,1.15625 -4,1.15625 -2.39063,0 -3.79688,-0.96875 -1.39062,-0.98437 -1.82812,-2.65625 z"
     fill-rule="nonzero"
     id="path8" />
  <path
     fill="#8e7cc3"
     d="m 324.69028,113.295 v 0 c 0,-28.59182 23.17825,-51.770065 51.77008,-51.770065 h 207.07407 v 0 c 13.73022,0 26.89819,5.45433 36.60693,15.163101 9.7088,9.708771 15.16309,22.876686 15.16309,36.606964 v 313.40472 c 0,28.59183 -23.17822,51.77008 -51.77002,51.77008 H 376.46036 c -28.59183,0 -51.77008,-23.17825 -51.77008,-51.77008 z"
     fill-rule="evenodd"
     id="path9" />
  <path
     stroke="#595959"
     stroke-width="1"
     stroke-linejoin="round"
     stroke-linecap="butt"
     d="m 324.69028,113.295 v 0 c 0,-28.59182 23.17825,-51.770065 51.77008,-51.770065 h 207.07407 v 0 c 13.73022,0 26.89819,5.45433 36.60693,15.163101 9.7088,9.708771 15.16309,22.876686 15.16309,36.606964 v 313.40472 c 0,28.59183 -23.17822,51.77008 -51.77002,51.77008 H 376.46036 c -28.59183,0 -51.77008,-23.17825 -51.77008,-51.77008 z"
     fill-rule="evenodd"
     id="path10" />
  <path
     fill="#000000"
     d="m 426.5752,279.59738 h -4.1875 l -1.65625,-4.32813 h -7.64063 l -1.5625,4.32813 h -4.09375 l 7.4375,-19.07813 h 4.0625 z m -7.09375,-7.54688 -2.625,-7.07812 -2.57813,7.07812 z m 9.01593,-6.28125 h 3.40625 v 2.03125 q 0.67188,-1.03125 1.79688,-1.6875 1.125,-0.65625 2.51562,-0.65625 2.40625,0 4.07813,1.89063 1.6875,1.89062 1.6875,5.26562 0,3.45313 -1.70313,5.375 -1.6875,1.92188 -4.09375,1.92188 -1.14062,0 -2.07812,-0.45313 -0.92188,-0.45312 -1.95313,-1.5625 v 6.96875 h -3.65625 z m 3.60938,6.6875 q 0,2.32813 0.92187,3.4375 0.9375,1.10938 2.26563,1.10938 1.26562,0 2.10937,-1.01563 0.85938,-1.03125 0.85938,-3.35937 0,-2.17188 -0.875,-3.21875 -0.875,-1.0625 -2.17188,-1.0625 -1.32812,0 -2.21875,1.04687 -0.89062,1.03125 -0.89062,3.0625 z m 12.6733,-6.6875 h 3.40625 v 2.03125 q 0.67188,-1.03125 1.79688,-1.6875 1.125,-0.65625 2.51562,-0.65625 2.40625,0 4.07813,1.89063 1.6875,1.89062 1.6875,5.26562 0,3.45313 -1.70313,5.375 -1.6875,1.92188 -4.09375,1.92188 -1.14062,0 -2.07812,-0.45313 -0.92188,-0.45312 -1.95313,-1.5625 v 6.96875 h -3.65625 z m 3.60938,6.6875 q 0,2.32813 0.92187,3.4375 0.9375,1.10938 2.26563,1.10938 1.26562,0 2.10937,-1.01563 0.85938,-1.03125 0.85938,-3.35937 0,-2.17188 -0.875,-3.21875 -0.875,-1.0625 -2.17188,-1.0625 -1.32812,0 -2.21875,1.04687 -0.89062,1.03125 -0.89062,3.0625 z m 12.76709,7.14063 v -19.07813 h 3.67187 v 19.07813 z m 7.40594,-15.70313 v -3.375 h 3.67188 v 3.375 z m 0,15.70313 v -13.82813 h 3.67188 v 13.82813 z m 19.46848,-9.73438 -3.60938,0.65625 q -0.1875,-1.09375 -0.82812,-1.64062 -0.64063,-0.54688 -1.67188,-0.54688 -1.35937,0 -2.17187,0.95313 -0.8125,0.9375 -0.8125,3.15625 0,2.45312 0.8125,3.46875 0.82812,1.01562 2.21875,1.01562 1.04687,0 1.70312,-0.59375 0.67188,-0.59375 0.95313,-2.03125 l 3.57812,0.60938 q -0.54687,2.46875 -2.14062,3.73437 -1.59375,1.26563 -4.25,1.26563 -3.03125,0 -4.84375,-1.90625 -1.79688,-1.92188 -1.79688,-5.29688 0,-3.4375 1.79688,-5.34375 1.8125,-1.90625 4.90625,-1.90625 2.51562,0 4,1.09375 1.5,1.07813 2.15625,3.3125 z m 5.49679,0.125 -3.3125,-0.59375 q 0.5625,-2 1.92188,-2.96875 1.375,-0.96875 4.0625,-0.96875 2.45312,0 3.64062,0.57813 1.20313,0.57812 1.6875,1.48437 0.5,0.89063 0.5,3.26563 l -0.0469,4.26562 q 0,1.82813 0.17187,2.70313 0.17188,0.85937 0.65625,1.84375 h -3.60937 q -0.14063,-0.35938 -0.35938,-1.07813 -0.0937,-0.32812 -0.125,-0.4375 -0.9375,0.92188 -2.01562,1.375 -1.0625,0.45313 -2.26563,0.45313 -2.14062,0 -3.375,-1.15625 -1.21875,-1.15625 -1.21875,-2.9375 0,-1.17188 0.54688,-2.07813 0.5625,-0.92187 1.57812,-1.40625 1.01563,-0.48437 2.90625,-0.85937 2.5625,-0.48438 3.5625,-0.89063 v -0.375 q 0,-1.04687 -0.53125,-1.5 -0.51562,-0.45312 -1.96875,-0.45312 -0.96875,0 -1.51562,0.39062 -0.54688,0.39063 -0.89063,1.34375 z m 4.90625,2.96875 q -0.70312,0.23438 -2.23437,0.5625 -1.51563,0.32813 -1.98438,0.64063 -0.71875,0.5 -0.71875,1.28125 0,0.76562 0.5625,1.32812 0.57813,0.5625 1.46875,0.5625 0.98438,0 1.89063,-0.65625 0.65625,-0.48437 0.85937,-1.20312 0.15625,-0.46875 0.15625,-1.78125 z m 13.52808,-7.1875 v 2.92188 h -2.5 v 5.5625 q 0,1.70312 0.0625,1.98437 0.0781,0.28125 0.32813,0.46875 0.26562,0.17188 0.625,0.17188 0.51562,0 1.46875,-0.35938 l 0.31247,2.84375 q -1.2656,0.54688 -2.8906,0.54688 -0.98437,0 -1.78125,-0.32813 -0.79687,-0.32812 -1.17187,-0.85937 -0.35938,-0.53125 -0.5,-1.42188 -0.125,-0.64062 -0.125,-2.57812 v -6.03125 h -1.67188 v -2.92188 h 1.67188 v -2.73437 l 3.67187,-2.14063 v 4.875 z m 2.53299,-1.875 v -3.375 h 3.67188 v 3.375 z m 0,15.70313 v -13.82813 h 3.67188 v 13.82813 z m 6.5622,-7.10938 q 0,-1.8125 0.89062,-3.51562 0.90625,-1.71875 2.54688,-2.60938 1.65625,-0.90625 3.6875,-0.90625 3.14062,0 5.14062,2.04688 2,2.03125 2,5.14062 0,3.14063 -2.03125,5.20313 -2.01562,2.0625 -5.07812,2.0625 -1.90625,0 -3.64063,-0.85938 -1.71875,-0.85937 -2.625,-2.51562 -0.89062,-1.65625 -0.89062,-4.04688 z m 3.75,0.20313 q 0,2.04687 0.96875,3.14062 0.98437,1.09375 2.42187,1.09375 1.42188,0 2.39063,-1.09375 0.98437,-1.09375 0.98437,-3.17187 0,-2.03125 -0.98437,-3.125 -0.96875,-1.09375 -2.39063,-1.09375 -1.4375,0 -2.42187,1.09375 -0.96875,1.09375 -0.96875,3.15625 z m 25.95459,6.90625 h -3.65625 v -7.04688 q 0,-2.25 -0.23438,-2.90625 -0.23437,-0.65625 -0.76562,-1.01562 -0.51563,-0.375 -1.26563,-0.375 -0.95312,0 -1.70312,0.53125 -0.75,0.51562 -1.03125,1.375 -0.28125,0.85937 -0.28125,3.17187 v 6.26563 h -3.65625 v -13.82813 h 3.39062 v 2.03125 q 1.8125,-2.34375 4.5625,-2.34375 1.20313,0 2.20313,0.4375 1.01562,0.4375 1.51562,1.125 0.51563,0.67188 0.71875,1.53125 0.20313,0.85938 0.20313,2.45313 z"
     fill-rule="nonzero"
     id="path11" />
</svg>
