<?xml version="1.0" encoding="UTF-8" standalone="no"?>
<svg
   version="1.1"
   viewBox="0.0 0.0 960.0 540.0"
   fill="none"
   stroke="none"
   stroke-linecap="square"
   stroke-miterlimit="10"
   id="svg23"
   sodipodi:docname="app3.svg"
   inkscape:version="1.4.1-rc (06eac75fbf, 2025-03-29)"
   xmlns:inkscape="http://www.inkscape.org/namespaces/inkscape"
   xmlns:sodipodi="http://sodipodi.sourceforge.net/DTD/sodipodi-0.dtd"
   xmlns="http://www.w3.org/2000/svg"
   xmlns:svg="http://www.w3.org/2000/svg">
  <defs
     id="defs23" />
  <sodipodi:namedview
     id="namedview23"
     pagecolor="#ffffff"
     bordercolor="#000000"
     borderopacity="0.25"
     inkscape:showpageshadow="2"
     inkscape:pageopacity="0.0"
     inkscape:pagecheckerboard="0"
     inkscape:deskcolor="#d1d1d1"
     inkscape:zoom="0.97249938"
     inkscape:cx="494.08772"
     inkscape:cy="225.19295"
     inkscape:window-width="2560"
     inkscape:window-height="1360"
     inkscape:window-x="0"
     inkscape:window-y="0"
     inkscape:window-maximized="1"
     inkscape:current-layer="svg23" />
  <clipPath
     id="g3480f2a7738_0_12.0">
    <path
       d="m0 0l960.0 0l0 540.0l-960.0 0l0 -540.0z"
       clip-rule="nonzero"
       id="path1" />
  </clipPath>
  <g
     clip-path="url(#g3480f2a7738_0_12.0)"
     id="g23">
    <path
       fill="#8e7cc3"
       d="m324.69028 113.295l0 0c0 -28.59182 23.178253 -51.770065 51.77008 -51.770065l207.07407 0l0 0c13.730225 0 26.898193 5.4543304 36.606934 15.163101c9.708801 9.708771 15.163086 22.876686 15.163086 36.606964l0 313.40472c0 28.591827 -23.178223 51.77008 -51.77002 51.77008l-207.07407 0c-28.591827 0 -51.77008 -23.178253 -51.77008 -51.77008z"
       fill-rule="evenodd"
       id="path3" />
    <path
       stroke="#595959"
       stroke-width="1.0"
       stroke-linejoin="round"
       stroke-linecap="butt"
       d="m324.69028 113.295l0 0c0 -28.59182 23.178253 -51.770065 51.77008 -51.770065l207.07407 0l0 0c13.730225 0 26.898193 5.4543304 36.606934 15.163101c9.708801 9.708771 15.163086 22.876686 15.163086 36.606964l0 313.40472c0 28.591827 -23.178223 51.77008 -51.77002 51.77008l-207.07407 0c-28.591827 0 -51.77008 -23.178253 -51.77008 -51.77008z"
       fill-rule="evenodd"
       id="path4" />
    <path
       fill="#000000"
       d="m426.5752 279.59738l-4.1875 0l-1.65625 -4.328125l-7.640625 0l-1.5625 4.328125l-4.09375 0l7.4375 -19.078125l4.0625 0l7.640625 19.078125zm-7.09375 -7.546875l-2.625 -7.078125l-2.578125 7.078125l5.203125 0zm9.01593 -6.28125l3.40625 0l0 2.03125q0.671875 -1.03125 1.796875 -1.6875q1.125 -0.65625 2.515625 -0.65625q2.40625 0 4.078125 1.890625q1.6875 1.890625 1.6875 5.265625q0 3.453125 -1.703125 5.375q-1.6875 1.921875 -4.09375 1.921875q-1.140625 0 -2.078125 -0.453125q-0.921875 -0.453125 -1.953125 -1.5625l0 6.96875l-3.65625 0l0 -19.09375zm3.609375 6.6875q0 2.328125 0.921875 3.4375q0.9375 1.109375 2.265625 1.109375q1.265625 0 2.109375 -1.015625q0.859375 -1.03125 0.859375 -3.359375q0 -2.171875 -0.875 -3.21875q-0.875 -1.0625 -2.171875 -1.0625q-1.328125 0 -2.21875 1.046875q-0.890625 1.03125 -0.890625 3.0625zm12.673309 -6.6875l3.40625 0l0 2.03125q0.671875 -1.03125 1.796875 -1.6875q1.125 -0.65625 2.515625 -0.65625q2.40625 0 4.078125 1.890625q1.6875 1.890625 1.6875 5.265625q0 3.453125 -1.703125 5.375q-1.6875 1.921875 -4.09375 1.921875q-1.140625 0 -2.078125 -0.453125q-0.921875 -0.453125 -1.953125 -1.5625l0 6.96875l-3.65625 0l0 -19.09375zm3.609375 6.6875q0 2.328125 0.921875 3.4375q0.9375 1.109375 2.265625 1.109375q1.265625 0 2.109375 -1.015625q0.859375 -1.03125 0.859375 -3.359375q0 -2.171875 -0.875 -3.21875q-0.875 -1.0625 -2.171875 -1.0625q-1.328125 0 -2.21875 1.046875q-0.890625 1.03125 -0.890625 3.0625zm12.76709 7.140625l0 -19.078125l3.671875 0l0 19.078125l-3.671875 0zm7.405945 -15.703125l0 -3.375l3.671875 0l0 3.375l-3.671875 0zm0 15.703125l0 -13.828125l3.671875 0l0 13.828125l-3.671875 0zm19.468475 -9.734375l-3.609375 0.65625q-0.1875 -1.09375 -0.828125 -1.640625q-0.640625 -0.546875 -1.671875 -0.546875q-1.359375 0 -2.171875 0.953125q-0.8125 0.9375 -0.8125 3.15625q0 2.453125 0.8125 3.46875q0.828125 1.015625 2.21875 1.015625q1.046875 0 1.703125 -0.59375q0.671875 -0.59375 0.953125 -2.03125l3.578125 0.609375q-0.546875 2.46875 -2.140625 3.734375q-1.59375 1.265625 -4.25 1.265625q-3.03125 0 -4.84375 -1.90625q-1.796875 -1.921875 -1.796875 -5.296875q0 -3.4375 1.796875 -5.34375q1.8125 -1.90625 4.90625 -1.90625q2.515625 0 4.0 1.09375q1.5 1.078125 2.15625 3.3125zm5.4967957 0.125l-3.3125 -0.59375q0.5625 -2.0 1.921875 -2.96875q1.375 -0.96875 4.0625 -0.96875q2.453125 0 3.640625 0.578125q1.203125 0.578125 1.6875 1.484375q0.5 0.890625 0.5 3.265625l-0.046875 4.265625q0 1.828125 0.171875 2.703125q0.171875 0.859375 0.65625 1.84375l-3.609375 0q-0.140625 -0.359375 -0.359375 -1.078125q-0.09375 -0.328125 -0.125 -0.4375q-0.9375 0.921875 -2.015625 1.375q-1.0625 0.453125 -2.265625 0.453125q-2.140625 0 -3.375 -1.15625q-1.21875 -1.15625 -1.21875 -2.9375q0 -1.171875 0.546875 -2.078125q0.5625 -0.921875 1.578125 -1.40625q1.015625 -0.484375 2.90625 -0.859375q2.5625 -0.484375 3.5625 -0.890625l0 -0.375q0 -1.046875 -0.53125 -1.5q-0.515625 -0.453125 -1.96875 -0.453125q-0.96875 0 -1.515625 0.390625q-0.546875 0.390625 -0.890625 1.34375zm4.90625 2.96875q-0.703125 0.234375 -2.234375 0.5625q-1.515625 0.328125 -1.984375 0.640625q-0.71875 0.5 -0.71875 1.28125q0 0.765625 0.5625 1.328125q0.578125 0.5625 1.46875 0.5625q0.984375 0 1.890625 -0.65625q0.65625 -0.484375 0.859375 -1.203125q0.15625 -0.46875 0.15625 -1.78125l0 -0.734375zm13.528076 -7.1875l0 2.921875l-2.5 0l0 5.5625q0 1.703125 0.0625 1.984375q0.078125 0.28125 0.328125 0.46875q0.265625 0.171875 0.625 0.171875q0.515625 0 1.46875 -0.359375l0.31246948 2.84375q-1.2655945 0.546875 -2.8905945 0.546875q-0.984375 0 -1.78125 -0.328125q-0.796875 -0.328125 -1.171875 -0.859375q-0.359375 -0.53125 -0.5 -1.421875q-0.125 -0.640625 -0.125 -2.578125l0 -6.03125l-1.671875 0l0 -2.921875l1.671875 0l0 -2.734375l3.671875 -2.140625l0 4.875l2.5 0zm2.5329895 -1.875l0 -3.375l3.671875 0l0 3.375l-3.671875 0zm0 15.703125l0 -13.828125l3.671875 0l0 13.828125l-3.671875 0zm6.562195 -7.109375q0 -1.8125 0.890625 -3.515625q0.90625 -1.71875 2.546875 -2.609375q1.65625 -0.90625 3.6875 -0.90625q3.140625 0 5.140625 2.046875q2.0 2.03125 2.0 5.140625q0 3.140625 -2.03125 5.203125q-2.015625 2.0625 -5.078125 2.0625q-1.90625 0 -3.640625 -0.859375q-1.71875 -0.859375 -2.625 -2.515625q-0.890625 -1.65625 -0.890625 -4.046875zm3.75 0.203125q0 2.046875 0.96875 3.140625q0.984375 1.09375 2.421875 1.09375q1.421875 0 2.390625 -1.09375q0.984375 -1.09375 0.984375 -3.171875q0 -2.03125 -0.984375 -3.125q-0.96875 -1.09375 -2.390625 -1.09375q-1.4375 0 -2.421875 1.09375q-0.96875 1.09375 -0.96875 3.15625zm25.95459 6.90625l-3.65625 0l0 -7.046875q0 -2.25 -0.234375 -2.90625q-0.234375 -0.65625 -0.765625 -1.015625q-0.515625 -0.375 -1.265625 -0.375q-0.953125 0 -1.703125 0.53125q-0.75 0.515625 -1.03125 1.375q-0.28125 0.859375 -0.28125 3.171875l0 6.265625l-3.65625 0l0 -13.828125l3.390625 0l0 2.03125q1.8125 -2.34375 4.5625 -2.34375q1.203125 0 2.203125 0.4375q1.015625 0.4375 1.515625 1.125q0.515625 0.671875 0.71875 1.53125q0.203125 0.859375 0.203125 2.453125l0 8.59375z"
       fill-rule="nonzero"
       id="path5" />
    <path
       fill="#d9d2e9"
       d="m83.43569 245.62466l163.3386 0l0 -24.377945l48.755905 48.755905l-48.755905 48.75592l0 -24.37796l-163.3386 0z"
       fill-rule="evenodd"
       id="path6" />
    <path
       stroke="#595959"
       stroke-width="1.0"
       stroke-linejoin="round"
       stroke-linecap="butt"
       d="m83.43569 245.62466l163.3386 0l0 -24.377945l48.755905 48.755905l-48.755905 48.75592l0 -24.37796l-163.3386 0z"
       fill-rule="evenodd"
       id="path7" />
    <path
       fill="#000000"
       d="m141.7863 278.26263l0 -16.21875l12.03125 0l0 2.75l-8.75 0l0 3.59375l8.140625 0l0 2.734375l-8.140625 0l0 4.40625l9.0625 0l0 2.734375l-12.34375 0zm18.330292 0l-4.734375 -11.75l3.265625 0l2.203125 6.0l0.640625 2.0q0.265625 -0.765625 0.328125 -1.0q0.15625 -0.5 0.328125 -1.0l2.234375 -6.0l3.203125 0l-4.671875 11.75l-2.796875 0zm16.178452 -3.734375l3.09375 0.515625q-0.59375 1.703125 -1.890625 2.59375q-1.28125 0.890625 -3.21875 0.890625q-3.0625 0 -4.546875 -2.0q-1.15625 -1.609375 -1.15625 -4.046875q0 -2.921875 1.515625 -4.578125q1.53125 -1.65625 3.875 -1.65625q2.625 0 4.140625 1.734375q1.515625 1.734375 1.4375 5.296875l-7.78125 0q0.03125 1.390625 0.75 2.15625q0.71875 0.765625 1.796875 0.765625q0.71875 0 1.21875 -0.390625q0.5 -0.40625 0.765625 -1.28125zm0.171875 -3.140625q-0.03125 -1.359375 -0.703125 -2.0625q-0.65625 -0.703125 -1.609375 -0.703125q-1.015625 0 -1.6875 0.75q-0.65625 0.734375 -0.65625 2.015625l4.65625 0zm16.303452 6.875l-3.109375 0l0 -6.0q0 -1.90625 -0.203125 -2.453125q-0.1875 -0.5625 -0.640625 -0.875q-0.453125 -0.3125 -1.078125 -0.3125q-0.8125 0 -1.453125 0.453125q-0.640625 0.4375 -0.875 1.171875q-0.234375 0.71875 -0.234375 2.6875l0 5.328125l-3.109375 0l0 -11.75l2.875 0l0 1.734375q1.546875 -2.0 3.875 -2.0q1.03125 0 1.875 0.375q0.859375 0.375 1.296875 0.953125q0.4375 0.5625 0.609375 1.296875q0.171875 0.734375 0.171875 2.09375l0 7.296875zm8.542465 -11.75l0 2.484375l-2.125 0l0 4.734375q0 1.4375 0.0625 1.671875q0.0625 0.234375 0.265625 0.390625q0.21875 0.15625 0.53125 0.15625q0.4375 0 1.25 -0.296875l0.265625 2.40625q-1.078125 0.46875 -2.453125 0.46875q-0.84375 0 -1.515625 -0.28125q-0.671875 -0.28125 -1.0 -0.71875q-0.3125 -0.453125 -0.421875 -1.21875q-0.109375 -0.546875 -0.109375 -2.203125l0 -5.109375l-1.421875 0l0 -2.484375l1.421875 0l0 -2.328125l3.125 -1.8125l0 4.140625l2.125 0zm1.0603333 8.390625l3.125 -0.46875q0.1875 0.90625 0.796875 1.375q0.609375 0.46875 1.703125 0.46875q1.21875 0 1.8125 -0.4375q0.421875 -0.3125 0.421875 -0.828125q0 -0.359375 -0.21875 -0.59375q-0.234375 -0.21875 -1.046875 -0.40625q-3.765625 -0.828125 -4.765625 -1.515625q-1.390625 -0.953125 -1.390625 -2.640625q0 -1.53125 1.203125 -2.5625q1.203125 -1.046875 3.734375 -1.046875q2.40625 0 3.578125 0.796875q1.1875 0.78125 1.625 2.3125l-2.9375 0.546875q-0.1875 -0.6875 -0.71875 -1.046875q-0.515625 -0.375 -1.484375 -0.375q-1.234375 0 -1.765625 0.34375q-0.359375 0.25 -0.359375 0.625q0 0.34375 0.3125 0.578125q0.421875 0.296875 2.90625 0.875q2.484375 0.5625 3.46875 1.375q0.96875 0.828125 0.96875 2.3125q0 1.609375 -1.34375 2.78125q-1.34375 1.15625 -4.0 1.15625q-2.390625 0 -3.796875 -0.96875q-1.390625 -0.984375 -1.828125 -2.65625z"
       fill-rule="nonzero"
       id="path8" />
    <path
       fill="#d9d2e9"
       d="m83.43569 129.979l163.3386 0l0 -24.377953l48.755905 48.755898l-48.755905 48.755905l0 -24.377945l-163.3386 0z"
       fill-rule="evenodd"
       id="path9" />
    <path
       stroke="#595959"
       stroke-width="1.0"
       stroke-linejoin="round"
       stroke-linecap="butt"
       d="m83.43569 129.979l163.3386 0l0 -24.377953l48.755905 48.755898l-48.755905 48.755905l0 -24.377945l-163.3386 0z"
       fill-rule="evenodd"
       id="path10" />
    <path
       fill="#000000"
       d="m149.3743 162.61696l0 -16.21875l3.28125 0l0 6.390625l6.40625 0l0 -6.390625l3.28125 0l0 16.21875l-3.28125 0l0 -7.09375l-6.40625 0l0 7.09375l-3.28125 0zm20.002243 0l0 -13.46875l-4.8125 0l0 -2.75l12.890625 0l0 2.75l-4.796875 0l0 13.46875l-3.28125 0zm13.83934 0l0 -13.46875l-4.8125 0l0 -2.75l12.890625 0l0 2.75l-4.796875 0l0 13.46875l-3.28125 0zm10.18309 0l0 -16.21875l5.265625 0q2.984375 0 3.890625 0.25q1.390625 0.359375 2.328125 1.578125q0.953125 1.21875 0.953125 3.15625q0 1.5 -0.546875 2.515625q-0.546875 1.015625 -1.390625 1.609375q-0.828125 0.578125 -1.6875 0.765625q-1.171875 0.21875 -3.390625 0.21875l-2.140625 0l0 6.125l-3.28125 0zm3.28125 -13.46875l0 4.59375l1.796875 0q1.9375 0 2.578125 -0.25q0.65625 -0.25 1.03125 -0.796875q0.375 -0.546875 0.375 -1.265625q0 -0.875 -0.53125 -1.453125q-0.515625 -0.578125 -1.3125 -0.71875q-0.578125 -0.109375 -2.359375 -0.109375l-1.578125 0z"
       fill-rule="nonzero"
       id="path11" />
    <path
       fill="#d9d2e9"
       d="m83.43569 361.27036l163.3386 0l0 -24.37796l48.755905 48.75589l-48.755905 48.75592l0 -24.37796l-163.3386 0z"
       fill-rule="evenodd"
       id="path12" />
    <path
       stroke="#595959"
       stroke-width="1.0"
       stroke-linejoin="round"
       stroke-linecap="butt"
       d="m83.43569 361.27036l163.3386 0l0 -24.37796l48.755905 48.75589l-48.755905 48.75592l0 -24.37796l-163.3386 0z"
       fill-rule="evenodd"
       id="path13" />
    <path
       fill="#000000"
       d="m153.15121 393.9083l0 -16.21875l11.109375 0l0 2.75l-7.84375 0l0 3.828125l6.78125 0l0 2.75l-6.78125 0l0 6.890625l-3.265625 0zm13.792465 -13.34375l0 -2.875l3.109375 0l0 2.875l-3.109375 0zm0 13.34375l0 -11.75l3.109375 0l0 11.75l-3.109375 0zm6.294632 0l0 -16.21875l3.109375 0l0 16.21875l-3.109375 0zm13.107132 -3.734375l3.09375 0.515625q-0.59375 1.703125 -1.890625 2.59375q-1.28125 0.890625 -3.21875 0.890625q-3.0625 0 -4.546875 -2.0q-1.15625 -1.609375 -1.15625 -4.046875q0 -2.921875 1.515625 -4.578125q1.53125 -1.65625 3.875 -1.65625q2.625 0 4.140625 1.734375q1.515625 1.734375 1.4375 5.296875l-7.78125 0q0.03125 1.390625 0.75 2.15625q0.71875 0.765625 1.796875 0.765625q0.71875 0 1.21875 -0.390625q0.5 -0.40625 0.765625 -1.28125zm0.171875 -3.140625q-0.03125 -1.359375 -0.703125 -2.0625q-0.65625 -0.703125 -1.609375 -0.703125q-1.015625 0 -1.6875 0.75q-0.65625 0.734375 -0.65625 2.015625l4.65625 0zm4.5222015 3.515625l3.125 -0.46875q0.1875 0.90625 0.796875 1.375q0.609375 0.46875 1.703125 0.46875q1.21875 0 1.8125 -0.4375q0.421875 -0.3125 0.421875 -0.828125q0 -0.359375 -0.21875 -0.59375q-0.234375 -0.21875 -1.046875 -0.40625q-3.765625 -0.828125 -4.765625 -1.515625q-1.390625 -0.953125 -1.390625 -2.640625q0 -1.53125 1.203125 -2.5625q1.203125 -1.046875 3.734375 -1.046875q2.40625 0 3.578125 0.796875q1.1875 0.78125 1.625 2.3125l-2.9375 0.546875q-0.1875 -0.6875 -0.71875 -1.046875q-0.515625 -0.375 -1.484375 -0.375q-1.234375 0 -1.765625 0.34375q-0.359375 0.25 -0.359375 0.625q0 0.34375 0.3125 0.578125q0.421875 0.296875 2.90625 0.875q2.484375 0.5625 3.46875 1.375q0.96875 0.828125 0.96875 2.3125q0 1.609375 -1.34375 2.78125q-1.34375 1.15625 -4.0 1.15625q-2.390625 0 -3.796875 -0.96875q-1.390625 -0.984375 -1.828125 -2.65625z"
       fill-rule="nonzero"
       id="path14" />
    <path
       fill="#d9d2e9"
       d="m657.3412 245.62466l163.33862 0l0 -24.377945l48.75586 48.755905l-48.75586 48.75592l0 -24.37796l-163.33862 0z"
       fill-rule="evenodd"
       id="path15" />
    <path
       stroke="#595959"
       stroke-width="1.0"
       stroke-linejoin="round"
       stroke-linecap="butt"
       d="m657.3412 245.62466l163.33862 0l0 -24.377945l48.75586 48.755905l-48.75586 48.75592l0 -24.37796l-163.33862 0z"
       fill-rule="evenodd"
       id="path16" />
    <path
       fill="#000000"
       d="m715.69183 278.26263l0 -16.21875l12.03125 0l0 2.75l-8.75 0l0 3.59375l8.140625 0l0 2.734375l-8.140625 0l0 4.40625l9.0625 0l0 2.734375l-12.34375 0zm18.330261 0l-4.734375 -11.75l3.265625 0l2.203125 6.0l0.640625 2.0q0.265625 -0.765625 0.328125 -1.0q0.15625 -0.5 0.328125 -1.0l2.234375 -6.0l3.203125 0l-4.671875 11.75l-2.796875 0zm16.178467 -3.734375l3.09375 0.515625q-0.59375 1.703125 -1.890625 2.59375q-1.28125 0.890625 -3.21875 0.890625q-3.0625 0 -4.546875 -2.0q-1.15625 -1.609375 -1.15625 -4.046875q0 -2.921875 1.515625 -4.578125q1.53125 -1.65625 3.875 -1.65625q2.625 0 4.140625 1.734375q1.515625 1.734375 1.4375 5.296875l-7.78125 0q0.03125 1.390625 0.75 2.15625q0.71875 0.765625 1.796875 0.765625q0.71875 0 1.21875 -0.390625q0.5 -0.40625 0.765625 -1.28125zm0.171875 -3.140625q-0.03125 -1.359375 -0.703125 -2.0625q-0.65625 -0.703125 -1.609375 -0.703125q-1.015625 0 -1.6875 0.75q-0.65625 0.734375 -0.65625 2.015625l4.65625 0zm16.303467 6.875l-3.109375 0l0 -6.0q0 -1.90625 -0.203125 -2.453125q-0.1875 -0.5625 -0.640625 -0.875q-0.453125 -0.3125 -1.078125 -0.3125q-0.8125 0 -1.453125 0.453125q-0.640625 0.4375 -0.875 1.171875q-0.234375 0.71875 -0.234375 2.6875l0 5.328125l-3.109375 0l0 -11.75l2.875 0l0 1.734375q1.546875 -2.0 3.875 -2.0q1.03125 0 1.875 0.375q0.859375 0.375 1.296875 0.953125q0.4375 0.5625 0.609375 1.296875q0.171875 0.734375 0.171875 2.09375l0 7.296875zm8.542419 -11.75l0 2.484375l-2.125 0l0 4.734375q0 1.4375 0.0625 1.671875q0.0625 0.234375 0.265625 0.390625q0.21875 0.15625 0.53125 0.15625q0.4375 0 1.25 -0.296875l0.265625 2.40625q-1.078125 0.46875 -2.453125 0.46875q-0.84375 0 -1.515625 -0.28125q-0.671875 -0.28125 -1.0 -0.71875q-0.3125 -0.453125 -0.421875 -1.21875q-0.109375 -0.546875 -0.109375 -2.203125l0 -5.109375l-1.421875 0l0 -2.484375l1.421875 0l0 -2.328125l3.125 -1.8125l0 4.140625l2.125 0zm1.0603638 8.390625l3.125 -0.46875q0.1875 0.90625 0.796875 1.375q0.609375 0.46875 1.703125 0.46875q1.21875 0 1.8125 -0.4375q0.421875 -0.3125 0.421875 -0.828125q0 -0.359375 -0.21875 -0.59375q-0.234375 -0.21875 -1.046875 -0.40625q-3.765625 -0.828125 -4.765625 -1.515625q-1.390625 -0.953125 -1.390625 -2.640625q0 -1.53125 1.203125 -2.5625q1.203125 -1.046875 3.734375 -1.046875q2.40625 0 3.578125 0.796875q1.1875 0.78125 1.625 2.3125l-2.9375 0.546875q-0.1875 -0.6875 -0.71875 -1.046875q-0.515625 -0.375 -1.484375 -0.375q-1.234375 0 -1.765625 0.34375q-0.359375 0.25 -0.359375 0.625q0 0.34375 0.3125 0.578125q0.421875 0.296875 2.90625 0.875q2.484375 0.5625 3.46875 1.375q0.96875 0.828125 0.96875 2.3125q0 1.609375 -1.34375 2.78125q-1.34375 1.15625 -4.0 1.15625q-2.390625 0 -3.796875 -0.96875q-1.390625 -0.984375 -1.828125 -2.65625z"
       fill-rule="nonzero"
       id="path17" />
    <path
       fill="#d9d2e9"
       d="m657.3412 129.979l163.33862 0l0 -24.377953l48.75586 48.755898l-48.75586 48.755905l0 -24.377945l-163.33862 0z"
       fill-rule="evenodd"
       id="path18" />
    <path
       stroke="#595959"
       stroke-width="1.0"
       stroke-linejoin="round"
       stroke-linecap="butt"
       d="m657.3412 129.979l163.33862 0l0 -24.377953l48.75586 48.755898l-48.75586 48.755905l0 -24.377945l-163.33862 0z"
       fill-rule="evenodd"
       id="path19" />
    <path
       fill="#000000"
       d="m727.6582 156.64821l0 -2.71875l7.0625 0l0 6.453125q-1.03125 1.0 -2.984375 1.765625q-1.953125 0.75 -3.953125 0.75q-2.546875 0 -4.4375 -1.0625q-1.890625 -1.078125 -2.84375 -3.0625q-0.953125 -1.984375 -0.953125 -4.328125q0 -2.53125 1.0625 -4.5q1.0625 -1.96875 3.109375 -3.015625q1.5625 -0.8125 3.890625 -0.8125q3.015625 0 4.703125 1.265625q1.703125 1.265625 2.203125 3.515625l-3.265625 0.59375q-0.328125 -1.1875 -1.28125 -1.875q-0.953125 -0.703125 -2.359375 -0.703125q-2.15625 0 -3.421875 1.375q-1.265625 1.359375 -1.265625 4.03125q0 2.890625 1.28125 4.34375q1.296875 1.4375 3.375 1.4375q1.03125 0 2.0625 -0.40625q1.03125 -0.40625 1.765625 -0.984375l0 -2.0625l-3.75 0zm10.091492 5.96875l0 -16.21875l6.890625 0q2.609375 0 3.78125 0.4375q1.171875 0.4375 1.875 1.5625q0.71875 1.109375 0.71875 2.546875q0 1.828125 -1.078125 3.015625q-1.0625 1.1875 -3.203125 1.5q1.0625 0.625 1.75 1.359375q0.703125 0.734375 1.875 2.640625l1.96875 3.15625l-3.90625 0l-2.375 -3.53125q-1.265625 -1.890625 -1.734375 -2.375q-0.453125 -0.5 -0.984375 -0.671875q-0.515625 -0.1875 -1.640625 -0.1875l-0.65625 0l0 6.765625l-3.28125 0zm3.28125 -9.359375l2.421875 0q2.359375 0 2.9375 -0.1875q0.59375 -0.203125 0.921875 -0.6875q0.328125 -0.5 0.328125 -1.21875q0 -0.828125 -0.4375 -1.328125q-0.4375 -0.5 -1.234375 -0.640625q-0.390625 -0.046875 -2.390625 -0.046875l-2.546875 0l0 4.109375zm13.064758 9.359375l0 -16.21875l5.265625 0q2.984375 0 3.890625 0.25q1.390625 0.359375 2.328125 1.578125q0.953125 1.21875 0.953125 3.15625q0 1.5 -0.546875 2.515625q-0.546875 1.015625 -1.390625 1.609375q-0.828125 0.578125 -1.6875 0.765625q-1.171875 0.21875 -3.390625 0.21875l-2.140625 0l0 6.125l-3.28125 0zm3.28125 -13.46875l0 4.59375l1.796875 0q1.9375 0 2.578125 -0.25q0.65625 -0.25 1.03125 -0.796875q0.375 -0.546875 0.375 -1.265625q0 -0.875 -0.53125 -1.453125q-0.515625 -0.578125 -1.3125 -0.71875q-0.578125 -0.109375 -2.359375 -0.109375l-1.578125 0zm22.220947 7.5l3.171875 1.015625q-0.734375 2.65625 -2.4375 3.953125q-1.6875 1.28125 -4.296875 1.28125q-3.234375 0 -5.3125 -2.203125q-2.078125 -2.21875 -2.078125 -6.046875q0 -4.046875 2.078125 -6.28125q2.09375 -2.25 5.5 -2.25q2.984375 0 4.84375 1.765625q1.109375 1.03125 1.65625 2.984375l-3.234375 0.78125q-0.296875 -1.265625 -1.21875 -2.0q-0.90625 -0.734375 -2.203125 -0.734375q-1.8125 0 -2.9375 1.296875q-1.109375 1.296875 -1.109375 4.203125q0 3.0625 1.09375 4.375q1.109375 1.3125 2.890625 1.3125q1.296875 0 2.234375 -0.828125q0.9375 -0.84375 1.359375 -2.625z"
       fill-rule="nonzero"
       id="path20" />
    <path
       fill="#d9d2e9"
       d="m657.3412 361.27036l163.33862 0l0 -24.37796l48.75586 48.75589l-48.75586 48.75592l0 -24.37796l-163.33862 0z"
       fill-rule="evenodd"
       id="path21" />
    <path
       stroke="#595959"
       stroke-width="1.0"
       stroke-linejoin="round"
       stroke-linecap="butt"
       d="m657.3412 361.27036l163.33862 0l0 -24.37796l48.75586 48.75589l-48.75586 48.75592l0 -24.37796l-163.33862 0z"
       fill-rule="evenodd"
       id="path22" />
    <path
       fill="#000000"
       d="m736.47845 377.68954l5.984375 0q2.015625 0 3.078125 0.3125q1.4375 0.421875 2.453125 1.5q1.015625 1.0625 1.546875 2.625q0.53125 1.546875 0.53125 3.828125q0 2.0 -0.5 3.453125q-0.609375 1.765625 -1.734375 2.859375q-0.859375 0.828125 -2.296875 1.296875q-1.09375 0.34375 -2.90625 0.34375l-6.15625 0l0 -16.21875zm3.265625 2.75l0 10.734375l2.453125 0q1.375 0 1.984375 -0.15625q0.796875 -0.203125 1.3125 -0.671875q0.53125 -0.46875 0.859375 -1.5625q0.328125 -1.09375 0.328125 -2.96875q0 -1.890625 -0.328125 -2.890625q-0.328125 -1.0 -0.9375 -1.5625q-0.59375 -0.578125 -1.5 -0.765625q-0.6875 -0.15625 -2.6875 -0.15625l-1.484375 0zm13.111633 -2.75l6.484375 0q1.921875 0 2.859375 0.171875q0.953125 0.15625 1.703125 0.671875q0.75 0.5 1.25 1.34375q0.5 0.84375 0.5 1.890625q0 1.140625 -0.625 2.09375q-0.609375 0.953125 -1.65625 1.421875q1.484375 0.4375 2.28125 1.484375q0.796875 1.03125 0.796875 2.4375q0 1.109375 -0.515625 2.15625q-0.515625 1.046875 -1.40625 1.671875q-0.890625 0.625 -2.203125 0.765625q-0.8125 0.09375 -3.953125 0.109375l-5.515625 0l0 -16.21875zm3.28125 2.703125l0 3.75l2.140625 0q1.921875 0 2.375 -0.0625q0.84375 -0.09375 1.328125 -0.578125q0.484375 -0.484375 0.484375 -1.265625q0 -0.75 -0.421875 -1.21875q-0.40625 -0.46875 -1.234375 -0.578125q-0.484375 -0.046875 -2.796875 -0.046875l-1.875 0zm0 6.453125l0 4.328125l3.03125 0q1.765625 0 2.234375 -0.09375q0.734375 -0.140625 1.1875 -0.65625q0.46875 -0.515625 0.46875 -1.375q0 -0.734375 -0.359375 -1.234375q-0.34375 -0.515625 -1.015625 -0.734375q-0.671875 -0.234375 -2.90625 -0.234375l-2.640625 0z"
       fill-rule="nonzero"
       id="path23" />
  </g>
</svg>
