<?xml version="1.0" encoding="UTF-8" standalone="no"?>
<svg
   version="1.1"
   viewBox="0.0 0.0 960.0 540.0"
   fill="none"
   stroke="none"
   stroke-linecap="square"
   stroke-miterlimit="10"
   id="svg11"
   sodipodi:docname="app4.svg"
   inkscape:version="1.4.1-rc (06eac75fbf, 2025-03-29)"
   xmlns:inkscape="http://www.inkscape.org/namespaces/inkscape"
   xmlns:sodipodi="http://sodipodi.sourceforge.net/DTD/sodipodi-0.dtd"
   xmlns="http://www.w3.org/2000/svg"
   xmlns:svg="http://www.w3.org/2000/svg">
  <defs
     id="defs11" />
  <sodipodi:namedview
     id="namedview11"
     pagecolor="#ffffff"
     bordercolor="#000000"
     borderopacity="0.25"
     inkscape:showpageshadow="2"
     inkscape:pageopacity="0.0"
     inkscape:pagecheckerboard="0"
     inkscape:deskcolor="#d1d1d1"
     inkscape:zoom="0.44893155"
     inkscape:cx="-155.92578"
     inkscape:cy="325.21662"
     inkscape:window-width="2560"
     inkscape:window-height="1360"
     inkscape:window-x="0"
     inkscape:window-y="0"
     inkscape:window-maximized="1"
     inkscape:current-layer="svg11" />
  <clipPath
     id="g3480f2a7738_0_26.0">
    <path
       d="m0 0l960.0 0l0 540.0l-960.0 0l0 -540.0z"
       clip-rule="nonzero"
       id="path1" />
  </clipPath>
  <g
     clip-path="url(#g3480f2a7738_0_26.0)"
     id="g11">
    <path
       fill="#d9d2e9"
       d="m83.43569 245.62466l163.3386 0l0 -24.377945l48.755905 48.755905l-48.755905 48.75592l0 -24.37796l-163.3386 0z"
       fill-rule="evenodd"
       id="path3" />
    <path
       stroke="#595959"
       stroke-width="1.0"
       stroke-linejoin="round"
       stroke-linecap="butt"
       d="m83.43569 245.62466l163.3386 0l0 -24.377945l48.755905 48.755905l-48.755905 48.75592l0 -24.37796l-163.3386 0z"
       fill-rule="evenodd"
       id="path4" />
    <path
       fill="#000000"
       d="m144.862 278.26263l0 -16.21875l3.28125 0l0 16.21875l-3.28125 0zm17.060257 0l-3.109375 0l0 -6.0q0 -1.90625 -0.203125 -2.453125q-0.1875 -0.5625 -0.640625 -0.875q-0.453125 -0.3125 -1.078125 -0.3125q-0.8125 0 -1.453125 0.453125q-0.640625 0.4375 -0.875 1.171875q-0.234375 0.71875 -0.234375 2.6875l0 5.328125l-3.109375 0l0 -11.75l2.875 0l0 1.734375q1.546875 -2.0 3.875 -2.0q1.03125 0 1.875 0.375q0.859375 0.375 1.296875 0.953125q0.4375 0.5625 0.609375 1.296875q0.171875 0.734375 0.171875 2.09375l0 7.296875zm3.0580902 -11.75l2.90625 0l0 1.734375q0.5625 -0.890625 1.515625 -1.4375q0.96875 -0.5625 2.140625 -0.5625q2.046875 0 3.46875 1.609375q1.4375 1.59375 1.4375 4.46875q0 2.9375 -1.4375 4.578125q-1.4375 1.625 -3.484375 1.625q-0.96875 0 -1.765625 -0.390625q-0.796875 -0.390625 -1.671875 -1.328125l0 5.921875l-3.109375 0l0 -16.21875zm3.078125 5.671875q0 1.984375 0.78125 2.9375q0.796875 0.9375 1.921875 0.9375q1.078125 0 1.796875 -0.859375q0.71875 -0.875 0.71875 -2.859375q0 -1.84375 -0.734375 -2.734375q-0.734375 -0.90625 -1.84375 -0.90625q-1.125 0 -1.890625 0.890625q-0.75 0.875 -0.75 2.59375zm18.58934 6.078125l0 -1.765625q-0.640625 0.953125 -1.6875 1.5q-1.046875 0.53125 -2.203125 0.53125q-1.1875 0 -2.125 -0.515625q-0.9375 -0.53125 -1.359375 -1.46875q-0.421875 -0.9375 -0.421875 -2.59375l0 -7.4375l3.109375 0l0 5.40625q0 2.46875 0.171875 3.03125q0.171875 0.5625 0.625 0.890625q0.453125 0.3125 1.140625 0.3125q0.796875 0 1.421875 -0.421875q0.640625 -0.4375 0.875 -1.078125q0.234375 -0.65625 0.234375 -3.1875l0 -4.953125l3.109375 0l0 11.75l-2.890625 0zm11.49559 -11.75l0 2.484375l-2.125 0l0 4.734375q0 1.4375 0.0625 1.671875q0.0625 0.234375 0.265625 0.390625q0.21875 0.15625 0.53125 0.15625q0.4375 0 1.25 -0.296875l0.265625 2.40625q-1.078125 0.46875 -2.453125 0.46875q-0.84375 0 -1.515625 -0.28125q-0.671875 -0.28125 -1.0 -0.71875q-0.3125 -0.453125 -0.421875 -1.21875q-0.109375 -0.546875 -0.109375 -2.203125l0 -5.109375l-1.421875 0l0 -2.484375l1.421875 0l0 -2.328125l3.125 -1.8125l0 4.140625l2.125 0zm1.0603333 8.390625l3.125 -0.46875q0.1875 0.90625 0.796875 1.375q0.609375 0.46875 1.703125 0.46875q1.21875 0 1.8125 -0.4375q0.421875 -0.3125 0.421875 -0.828125q0 -0.359375 -0.21875 -0.59375q-0.234375 -0.21875 -1.046875 -0.40625q-3.765625 -0.828125 -4.765625 -1.515625q-1.390625 -0.953125 -1.390625 -2.640625q0 -1.53125 1.203125 -2.5625q1.203125 -1.046875 3.734375 -1.046875q2.40625 0 3.578125 0.796875q1.1875 0.78125 1.625 2.3125l-2.9375 0.546875q-0.1875 -0.6875 -0.71875 -1.046875q-0.515625 -0.375 -1.484375 -0.375q-1.234375 0 -1.765625 0.34375q-0.359375 0.25 -0.359375 0.625q0 0.34375 0.3125 0.578125q0.421875 0.296875 2.90625 0.875q2.484375 0.5625 3.46875 1.375q0.96875 0.828125 0.96875 2.3125q0 1.609375 -1.34375 2.78125q-1.34375 1.15625 -4.0 1.15625q-2.390625 0 -3.796875 -0.96875q-1.390625 -0.984375 -1.828125 -2.65625z"
       fill-rule="nonzero"
       id="path5" />
    <path
       fill="#d9d2e9"
       d="m657.3412 245.62466l163.33862 0l0 -24.377945l48.75586 48.755905l-48.75586 48.75592l0 -24.37796l-163.33862 0z"
       fill-rule="evenodd"
       id="path6" />
    <path
       stroke="#595959"
       stroke-width="1.0"
       stroke-linejoin="round"
       stroke-linecap="butt"
       d="m657.3412 245.62466l163.33862 0l0 -24.377945l48.75586 48.755905l-48.75586 48.75592l0 -24.37796l-163.33862 0z"
       fill-rule="evenodd"
       id="path7" />
    <path
       fill="#000000"
       d="m708.7686 270.247q0 -2.46875 0.734375 -4.15625q0.5625 -1.234375 1.515625 -2.21875q0.953125 -0.984375 2.09375 -1.46875q1.515625 -0.640625 3.5 -0.640625q3.578125 0 5.734375 2.234375q2.15625 2.21875 2.15625 6.171875q0 3.9375 -2.140625 6.15625q-2.125 2.21875 -5.703125 2.21875q-3.625 0 -5.765625 -2.203125q-2.125 -2.21875 -2.125 -6.09375zm3.375 -0.109375q0 2.765625 1.265625 4.1875q1.28125 1.421875 3.234375 1.421875q1.953125 0 3.203125 -1.40625q1.265625 -1.421875 1.265625 -4.25q0 -2.78125 -1.21875 -4.15625q-1.21875 -1.375 -3.25 -1.375q-2.015625 0 -3.265625 1.390625q-1.234375 1.390625 -1.234375 4.1875zm22.622742 8.125l0 -1.765625q-0.640625 0.953125 -1.6875 1.5q-1.046875 0.53125 -2.203125 0.53125q-1.1875 0 -2.125 -0.515625q-0.9375 -0.53125 -1.359375 -1.46875q-0.421875 -0.9375 -0.421875 -2.59375l0 -7.4375l3.109375 0l0 5.40625q0 2.46875 0.171875 3.03125q0.171875 0.5625 0.625 0.890625q0.453125 0.3125 1.140625 0.3125q0.796875 0 1.421875 -0.421875q0.640625 -0.4375 0.875 -1.078125q0.234375 -0.65625 0.234375 -3.1875l0 -4.953125l3.109375 0l0 11.75l-2.890625 0zm11.495605 -11.75l0 2.484375l-2.125 0l0 4.734375q0 1.4375 0.0625 1.671875q0.0625 0.234375 0.265625 0.390625q0.21875 0.15625 0.53125 0.15625q0.4375 0 1.25 -0.296875l0.265625 2.40625q-1.078125 0.46875 -2.453125 0.46875q-0.84375 0 -1.515625 -0.28125q-0.671875 -0.28125 -1.0 -0.71875q-0.3125 -0.453125 -0.421875 -1.21875q-0.109375 -0.546875 -0.109375 -2.203125l0 -5.109375l-1.421875 0l0 -2.484375l1.421875 0l0 -2.328125l3.125 -1.8125l0 4.140625l2.125 0zm2.0603027 0l2.90625 0l0 1.734375q0.5625 -0.890625 1.515625 -1.4375q0.96875 -0.5625 2.140625 -0.5625q2.046875 0 3.46875 1.609375q1.4375 1.59375 1.4375 4.46875q0 2.9375 -1.4375 4.578125q-1.4375 1.625 -3.484375 1.625q-0.96875 0 -1.765625 -0.390625q-0.796875 -0.390625 -1.671875 -1.328125l0 5.921875l-3.109375 0l0 -16.21875zm3.078125 5.671875q0 1.984375 0.78125 2.9375q0.796875 0.9375 1.921875 0.9375q1.078125 0 1.796875 -0.859375q0.71875 -0.875 0.71875 -2.859375q0 -1.84375 -0.734375 -2.734375q-0.734375 -0.90625 -1.84375 -0.90625q-1.125 0 -1.890625 0.890625q-0.75 0.875 -0.75 2.59375zm18.589355 6.078125l0 -1.765625q-0.640625 0.953125 -1.6875 1.5q-1.046875 0.53125 -2.203125 0.53125q-1.1875 0 -2.125 -0.515625q-0.9375 -0.53125 -1.359375 -1.46875q-0.421875 -0.9375 -0.421875 -2.59375l0 -7.4375l3.109375 0l0 5.40625q0 2.46875 0.171875 3.03125q0.171875 0.5625 0.625 0.890625q0.453125 0.3125 1.140625 0.3125q0.796875 0 1.421875 -0.421875q0.640625 -0.4375 0.875 -1.078125q0.234375 -0.65625 0.234375 -3.1875l0 -4.953125l3.109375 0l0 11.75l-2.890625 0zm11.495605 -11.75l0 2.484375l-2.125 0l0 4.734375q0 1.4375 0.0625 1.671875q0.0625 0.234375 0.265625 0.390625q0.21875 0.15625 0.53125 0.15625q0.4375 0 1.25 -0.296875l0.265625 2.40625q-1.078125 0.46875 -2.453125 0.46875q-0.84375 0 -1.515625 -0.28125q-0.671875 -0.28125 -1.0 -0.71875q-0.3125 -0.453125 -0.421875 -1.21875q-0.109375 -0.546875 -0.109375 -2.203125l0 -5.109375l-1.421875 0l0 -2.484375l1.421875 0l0 -2.328125l3.125 -1.8125l0 4.140625l2.125 0zm1.0603027 8.390625l3.125 -0.46875q0.1875 0.90625 0.796875 1.375q0.609375 0.46875 1.703125 0.46875q1.21875 0 1.8125 -0.4375q0.421875 -0.3125 0.421875 -0.828125q0 -0.359375 -0.21875 -0.59375q-0.234375 -0.21875 -1.046875 -0.40625q-3.765625 -0.828125 -4.765625 -1.515625q-1.390625 -0.953125 -1.390625 -2.640625q0 -1.53125 1.203125 -2.5625q1.203125 -1.046875 3.734375 -1.046875q2.40625 0 3.578125 0.796875q1.1875 0.78125 1.625 2.3125l-2.9375 0.546875q-0.1875 -0.6875 -0.71875 -1.046875q-0.515625 -0.375 -1.484375 -0.375q-1.234375 0 -1.765625 0.34375q-0.359375 0.25 -0.359375 0.625q0 0.34375 0.3125 0.578125q0.421875 0.296875 2.90625 0.875q2.484375 0.5625 3.46875 1.375q0.96875 0.828125 0.96875 2.3125q0 1.609375 -1.34375 2.78125q-1.34375 1.15625 -4.0 1.15625q-2.390625 0 -3.796875 -0.96875q-1.390625 -0.984375 -1.828125 -2.65625z"
       fill-rule="nonzero"
       id="path8" />
    <path
       fill="#8e7cc3"
       d="m324.69028 210.7565l0 0c0 -16.360138 13.262512 -29.622635 29.62265 -29.622635l251.3689 0c7.8563843 0 15.391052 3.1209412 20.94635 8.67627c5.555359 5.555313 8.67627 13.089951 8.67627 20.946365l0 118.487c0 16.360138 -13.262512 29.62265 -29.62262 29.62265l-251.3689 0c-16.360138 0 -29.62265 -13.262512 -29.62265 -29.62265z"
       fill-rule="evenodd"
       id="path9" />
    <path
       stroke="#595959"
       stroke-width="1.0"
       stroke-linejoin="round"
       stroke-linecap="butt"
       d="m324.69028 210.7565l0 0c0 -16.360138 13.262512 -29.622635 29.62265 -29.622635l251.3689 0c7.8563843 0 15.391052 3.1209412 20.94635 8.67627c5.555359 5.555313 8.67627 13.089951 8.67627 20.946365l0 118.487c0 16.360138 -13.262512 29.62265 -29.62262 29.62265l-251.3689 0c-16.360138 0 -29.62265 -13.262512 -29.62265 -29.62265z"
       fill-rule="evenodd"
       id="path10" />
    <path
       fill="#000000"
       d="m426.5752 279.6l-4.1875 0l-1.65625 -4.328125l-7.640625 0l-1.5625 4.328125l-4.09375 0l7.4375 -19.078125l4.0625 0l7.640625 19.078125zm-7.09375 -7.546875l-2.625 -7.078125l-2.578125 7.078125l5.203125 0zm9.01593 -6.28125l3.40625 0l0 2.03125q0.671875 -1.03125 1.796875 -1.6875q1.125 -0.65625 2.515625 -0.65625q2.40625 0 4.078125 1.890625q1.6875 1.890625 1.6875 5.265625q0 3.453125 -1.703125 5.375q-1.6875 1.921875 -4.09375 1.921875q-1.140625 0 -2.078125 -0.453125q-0.921875 -0.453125 -1.953125 -1.5625l0 6.96875l-3.65625 0l0 -19.09375zm3.609375 6.6875q0 2.328125 0.921875 3.4375q0.9375 1.109375 2.265625 1.109375q1.265625 0 2.109375 -1.015625q0.859375 -1.03125 0.859375 -3.359375q0 -2.171875 -0.875 -3.21875q-0.875 -1.0625 -2.171875 -1.0625q-1.328125 0 -2.21875 1.046875q-0.890625 1.03125 -0.890625 3.0625zm12.673309 -6.6875l3.40625 0l0 2.03125q0.671875 -1.03125 1.796875 -1.6875q1.125 -0.65625 2.515625 -0.65625q2.40625 0 4.078125 1.890625q1.6875 1.890625 1.6875 5.265625q0 3.453125 -1.703125 5.375q-1.6875 1.921875 -4.09375 1.921875q-1.140625 0 -2.078125 -0.453125q-0.921875 -0.453125 -1.953125 -1.5625l0 6.96875l-3.65625 0l0 -19.09375zm3.609375 6.6875q0 2.328125 0.921875 3.4375q0.9375 1.109375 2.265625 1.109375q1.265625 0 2.109375 -1.015625q0.859375 -1.03125 0.859375 -3.359375q0 -2.171875 -0.875 -3.21875q-0.875 -1.0625 -2.171875 -1.0625q-1.328125 0 -2.21875 1.046875q-0.890625 1.03125 -0.890625 3.0625zm12.76709 7.140625l0 -19.078125l3.671875 0l0 19.078125l-3.671875 0zm7.405945 -15.703125l0 -3.375l3.671875 0l0 3.375l-3.671875 0zm0 15.703125l0 -13.828125l3.671875 0l0 13.828125l-3.671875 0zm19.468475 -9.734375l-3.609375 0.65625q-0.1875 -1.09375 -0.828125 -1.640625q-0.640625 -0.546875 -1.671875 -0.546875q-1.359375 0 -2.171875 0.953125q-0.8125 0.9375 -0.8125 3.15625q0 2.453125 0.8125 3.46875q0.828125 1.015625 2.21875 1.015625q1.046875 0 1.703125 -0.59375q0.671875 -0.59375 0.953125 -2.03125l3.578125 0.609375q-0.546875 2.46875 -2.140625 3.734375q-1.59375 1.265625 -4.25 1.265625q-3.03125 0 -4.84375 -1.90625q-1.796875 -1.921875 -1.796875 -5.296875q0 -3.4375 1.796875 -5.34375q1.8125 -1.90625 4.90625 -1.90625q2.515625 0 4.0 1.09375q1.5 1.078125 2.15625 3.3125zm5.4967957 0.125l-3.3125 -0.59375q0.5625 -2.0 1.921875 -2.96875q1.375 -0.96875 4.0625 -0.96875q2.453125 0 3.640625 0.578125q1.203125 0.578125 1.6875 1.484375q0.5 0.890625 0.5 3.265625l-0.046875 4.265625q0 1.828125 0.171875 2.703125q0.171875 0.859375 0.65625 1.84375l-3.609375 0q-0.140625 -0.359375 -0.359375 -1.078125q-0.09375 -0.328125 -0.125 -0.4375q-0.9375 0.921875 -2.015625 1.375q-1.0625 0.453125 -2.265625 0.453125q-2.140625 0 -3.375 -1.15625q-1.21875 -1.15625 -1.21875 -2.9375q0 -1.171875 0.546875 -2.078125q0.5625 -0.921875 1.578125 -1.40625q1.015625 -0.484375 2.90625 -0.859375q2.5625 -0.484375 3.5625 -0.890625l0 -0.375q0 -1.046875 -0.53125 -1.5q-0.515625 -0.453125 -1.96875 -0.453125q-0.96875 0 -1.515625 0.390625q-0.546875 0.390625 -0.890625 1.34375zm4.90625 2.96875q-0.703125 0.234375 -2.234375 0.5625q-1.515625 0.328125 -1.984375 0.640625q-0.71875 0.5 -0.71875 1.28125q0 0.765625 0.5625 1.328125q0.578125 0.5625 1.46875 0.5625q0.984375 0 1.890625 -0.65625q0.65625 -0.484375 0.859375 -1.203125q0.15625 -0.46875 0.15625 -1.78125l0 -0.734375zm13.528076 -7.1875l0 2.921875l-2.5 0l0 5.5625q0 1.703125 0.0625 1.984375q0.078125 0.28125 0.328125 0.46875q0.265625 0.171875 0.625 0.171875q0.515625 0 1.46875 -0.359375l0.31246948 2.84375q-1.2655945 0.546875 -2.8905945 0.546875q-0.984375 0 -1.78125 -0.328125q-0.796875 -0.328125 -1.171875 -0.859375q-0.359375 -0.53125 -0.5 -1.421875q-0.125 -0.640625 -0.125 -2.578125l0 -6.03125l-1.671875 0l0 -2.921875l1.671875 0l0 -2.734375l3.671875 -2.140625l0 4.875l2.5 0zm2.5329895 -1.875l0 -3.375l3.671875 0l0 3.375l-3.671875 0zm0 15.703125l0 -13.828125l3.671875 0l0 13.828125l-3.671875 0zm6.562195 -7.109375q0 -1.8125 0.890625 -3.515625q0.90625 -1.71875 2.546875 -2.609375q1.65625 -0.90625 3.6875 -0.90625q3.140625 0 5.140625 2.046875q2.0 2.03125 2.0 5.140625q0 3.140625 -2.03125 5.203125q-2.015625 2.0625 -5.078125 2.0625q-1.90625 0 -3.640625 -0.859375q-1.71875 -0.859375 -2.625 -2.515625q-0.890625 -1.65625 -0.890625 -4.046875zm3.75 0.203125q0 2.046875 0.96875 3.140625q0.984375 1.09375 2.421875 1.09375q1.421875 0 2.390625 -1.09375q0.984375 -1.09375 0.984375 -3.171875q0 -2.03125 -0.984375 -3.125q-0.96875 -1.09375 -2.390625 -1.09375q-1.4375 0 -2.421875 1.09375q-0.96875 1.09375 -0.96875 3.15625zm25.95459 6.90625l-3.65625 0l0 -7.046875q0 -2.25 -0.234375 -2.90625q-0.234375 -0.65625 -0.765625 -1.015625q-0.515625 -0.375 -1.265625 -0.375q-0.953125 0 -1.703125 0.53125q-0.75 0.515625 -1.03125 1.375q-0.28125 0.859375 -0.28125 3.171875l0 6.265625l-3.65625 0l0 -13.828125l3.390625 0l0 2.03125q1.8125 -2.34375 4.5625 -2.34375q1.203125 0 2.203125 0.4375q1.015625 0.4375 1.515625 1.125q0.515625 0.671875 0.71875 1.53125q0.203125 0.859375 0.203125 2.453125l0 8.59375z"
       fill-rule="nonzero"
       id="path11" />
  </g>
</svg>
